<mxfile host="drawio-plugin" modified="2022-11-15T06:26:59.891Z" agent="5.0 (Windows NT 6.2; Win64; x64) AppleWebKit/537.36 (KHTML, like Gecko) Chrome/98.0.4758.102 Safari/537.36" etag="DxTLl81GpxPj9EtXcA2j" version="15.5.4" type="embed" pages="5"><diagram id="hvb5-evO5CEhQdUVUnic" name="USEcase "><mxGraphModel dx="1165" dy="5296" grid="1" gridSize="10" guides="1" tooltips="1" connect="1" arrows="1" fold="1" page="1" pageScale="1" pageWidth="3300" pageHeight="4681" math="0" shadow="0"><root><mxCell id="0"/><mxCell id="1" parent="0"/><mxCell id="cM7lnOa8xKsac278n9ST-1" value="" style="whiteSpace=wrap;html=1;aspect=fixed;" parent="1" vertex="1"><mxGeometry x="530" y="-10" width="1010" height="1010" as="geometry"/></mxCell><mxCell id="SN7ESuGg-9dV5CbwiE7h-20" value="상품DB" style="shape=umlFrame;whiteSpace=wrap;html=1;" parent="1" vertex="1"><mxGeometry x="650" y="30" width="540" height="200" as="geometry"/></mxCell><mxCell id="SN7ESuGg-9dV5CbwiE7h-22" value="회원DB" style="shape=umlFrame;whiteSpace=wrap;html=1;" parent="1" vertex="1"><mxGeometry x="610" y="450" width="870" height="270" as="geometry"/></mxCell><mxCell id="Kv26vEHC08VBiixHVHI5-12" style="rounded=0;orthogonalLoop=1;jettySize=auto;html=1;edgeStyle=orthogonalEdgeStyle;" parent="1" source="Kv26vEHC08VBiixHVHI5-2" target="Kv26vEHC08VBiixHVHI5-6" edge="1"><mxGeometry relative="1" as="geometry"><Array as="points"><mxPoint x="1085" y="210"/><mxPoint x="1085" y="210"/></Array></mxGeometry></mxCell><mxCell id="Kv26vEHC08VBiixHVHI5-13" style="edgeStyle=orthogonalEdgeStyle;rounded=0;orthogonalLoop=1;jettySize=auto;html=1;" parent="1" source="Kv26vEHC08VBiixHVHI5-2" target="Kv26vEHC08VBiixHVHI5-7" edge="1"><mxGeometry relative="1" as="geometry"><Array as="points"><mxPoint x="790" y="405"/></Array><mxPoint x="887.1071665146746" y="565.0526315789475" as="targetPoint"/></mxGeometry></mxCell><mxCell id="Kv26vEHC08VBiixHVHI5-2" value="직원" style="shape=umlActor;verticalLabelPosition=bottom;verticalAlign=top;html=1;" parent="1" vertex="1"><mxGeometry x="1070" y="300" width="30" height="60" as="geometry"/></mxCell><mxCell id="Kv26vEHC08VBiixHVHI5-14" style="edgeStyle=orthogonalEdgeStyle;rounded=0;orthogonalLoop=1;jettySize=auto;html=1;" parent="1" source="Kv26vEHC08VBiixHVHI5-3" target="Kv26vEHC08VBiixHVHI5-8" edge="1"><mxGeometry relative="1" as="geometry"><Array as="points"><mxPoint x="825" y="210"/><mxPoint x="825" y="210"/></Array></mxGeometry></mxCell><mxCell id="Kv26vEHC08VBiixHVHI5-15" style="edgeStyle=orthogonalEdgeStyle;rounded=0;orthogonalLoop=1;jettySize=auto;html=1;" parent="1" source="Kv26vEHC08VBiixHVHI5-3" target="Kv26vEHC08VBiixHVHI5-7" edge="1"><mxGeometry relative="1" as="geometry"><Array as="points"><mxPoint x="825" y="390"/><mxPoint x="780" y="390"/></Array></mxGeometry></mxCell><mxCell id="Kv26vEHC08VBiixHVHI5-3" value="고객" style="shape=umlActor;verticalLabelPosition=bottom;verticalAlign=top;html=1;" parent="1" vertex="1"><mxGeometry x="810" y="290" width="30" height="60" as="geometry"/></mxCell><mxCell id="JjDydGUEUOhYbfb6GzUT-12" value="&amp;lt;&amp;lt;Include&amp;gt;&amp;gt;" style="edgeStyle=orthogonalEdgeStyle;rounded=0;orthogonalLoop=1;jettySize=auto;html=1;dashed=1;" parent="1" source="Kv26vEHC08VBiixHVHI5-6" target="Kv26vEHC08VBiixHVHI5-9" edge="1"><mxGeometry relative="1" as="geometry"/></mxCell><mxCell id="Kv26vEHC08VBiixHVHI5-6" value="상품관리" style="ellipse;whiteSpace=wrap;html=1;" parent="1" vertex="1"><mxGeometry x="1055" y="130" width="60" height="60" as="geometry"/></mxCell><mxCell id="JjDydGUEUOhYbfb6GzUT-13" value="&amp;lt;&amp;lt;Include&amp;gt;&amp;gt;" style="edgeStyle=orthogonalEdgeStyle;rounded=0;orthogonalLoop=1;jettySize=auto;html=1;dashed=1;" parent="1" source="Kv26vEHC08VBiixHVHI5-7" target="Kv26vEHC08VBiixHVHI5-9" edge="1"><mxGeometry relative="1" as="geometry"><Array as="points"><mxPoint x="840" y="540"/><mxPoint x="840" y="480"/><mxPoint x="1240" y="480"/><mxPoint x="1240" y="565"/></Array></mxGeometry></mxCell><mxCell id="Kv26vEHC08VBiixHVHI5-7" value="회원&lt;br&gt;" style="ellipse;whiteSpace=wrap;html=1;" parent="1" vertex="1"><mxGeometry x="750" y="510" width="60" height="60" as="geometry"/></mxCell><mxCell id="Kv26vEHC08VBiixHVHI5-8" value="상품조회" style="ellipse;whiteSpace=wrap;html=1;" parent="1" vertex="1"><mxGeometry x="795" y="130" width="60" height="60" as="geometry"/></mxCell><mxCell id="Kv26vEHC08VBiixHVHI5-9" value="인증" style="ellipse;whiteSpace=wrap;html=1;" parent="1" vertex="1"><mxGeometry x="1270" y="530" width="80" height="70" as="geometry"/></mxCell><mxCell id="JjDydGUEUOhYbfb6GzUT-10" value="&amp;lt;&amp;lt;Extends&amp;gt;&amp;gt;" style="edgeStyle=orthogonalEdgeStyle;rounded=0;orthogonalLoop=1;jettySize=auto;html=1;entryX=1;entryY=0.5;entryDx=0;entryDy=0;dashed=1;" parent="1" source="Kv26vEHC08VBiixHVHI5-10" target="Kv26vEHC08VBiixHVHI5-67" edge="1"><mxGeometry relative="1" as="geometry"/></mxCell><mxCell id="Kv26vEHC08VBiixHVHI5-10" value="결제" style="ellipse;whiteSpace=wrap;html=1;" parent="1" vertex="1"><mxGeometry x="1050" y="500" width="60" height="60" as="geometry"/></mxCell><mxCell id="Kv26vEHC08VBiixHVHI5-11" value="장바구니 담기" style="ellipse;whiteSpace=wrap;html=1;rotation=0;" parent="1" vertex="1"><mxGeometry x="680" y="130" width="60" height="60" as="geometry"/></mxCell><mxCell id="Kv26vEHC08VBiixHVHI5-30" style="edgeStyle=orthogonalEdgeStyle;rounded=0;orthogonalLoop=1;jettySize=auto;html=1;" parent="1" source="Kv26vEHC08VBiixHVHI5-28" target="Kv26vEHC08VBiixHVHI5-8" edge="1"><mxGeometry relative="1" as="geometry"><Array as="points"><mxPoint x="785" y="110"/><mxPoint x="825" y="110"/></Array></mxGeometry></mxCell><mxCell id="Kv26vEHC08VBiixHVHI5-28" value="전체" style="ellipse;whiteSpace=wrap;html=1;" parent="1" vertex="1"><mxGeometry x="765" y="50" width="40" height="40" as="geometry"/></mxCell><mxCell id="Kv26vEHC08VBiixHVHI5-31" style="edgeStyle=orthogonalEdgeStyle;rounded=0;orthogonalLoop=1;jettySize=auto;html=1;" parent="1" source="Kv26vEHC08VBiixHVHI5-29" target="Kv26vEHC08VBiixHVHI5-8" edge="1"><mxGeometry relative="1" as="geometry"><Array as="points"><mxPoint x="865" y="110"/><mxPoint x="825" y="110"/></Array></mxGeometry></mxCell><mxCell id="Kv26vEHC08VBiixHVHI5-29" value="검색" style="ellipse;whiteSpace=wrap;html=1;" parent="1" vertex="1"><mxGeometry x="820" y="50" width="40" height="40" as="geometry"/></mxCell><mxCell id="Kv26vEHC08VBiixHVHI5-35" style="edgeStyle=orthogonalEdgeStyle;rounded=0;orthogonalLoop=1;jettySize=auto;html=1;" parent="1" source="Kv26vEHC08VBiixHVHI5-32" target="Kv26vEHC08VBiixHVHI5-6" edge="1"><mxGeometry relative="1" as="geometry"/></mxCell><mxCell id="Kv26vEHC08VBiixHVHI5-32" value="추가" style="ellipse;whiteSpace=wrap;html=1;" parent="1" vertex="1"><mxGeometry x="1125" y="60" width="40" height="40" as="geometry"/></mxCell><mxCell id="Kv26vEHC08VBiixHVHI5-34" style="edgeStyle=orthogonalEdgeStyle;rounded=0;orthogonalLoop=1;jettySize=auto;html=1;" parent="1" source="Kv26vEHC08VBiixHVHI5-33" target="Kv26vEHC08VBiixHVHI5-6" edge="1"><mxGeometry relative="1" as="geometry"><Array as="points"><mxPoint x="1085" y="80"/></Array></mxGeometry></mxCell><mxCell id="Kv26vEHC08VBiixHVHI5-33" value="수정" style="ellipse;whiteSpace=wrap;html=1;" parent="1" vertex="1"><mxGeometry x="1005" y="60" width="40" height="40" as="geometry"/></mxCell><mxCell id="Kv26vEHC08VBiixHVHI5-37" style="edgeStyle=orthogonalEdgeStyle;rounded=0;orthogonalLoop=1;jettySize=auto;html=1;" parent="1" source="Kv26vEHC08VBiixHVHI5-36" target="Kv26vEHC08VBiixHVHI5-7" edge="1"><mxGeometry relative="1" as="geometry"/></mxCell><mxCell id="Kv26vEHC08VBiixHVHI5-36" value="가입" style="ellipse;whiteSpace=wrap;html=1;" parent="1" vertex="1"><mxGeometry x="730" y="630" width="40" height="40" as="geometry"/></mxCell><mxCell id="Kv26vEHC08VBiixHVHI5-39" style="edgeStyle=orthogonalEdgeStyle;rounded=0;orthogonalLoop=1;jettySize=auto;html=1;" parent="1" source="Kv26vEHC08VBiixHVHI5-38" target="Kv26vEHC08VBiixHVHI5-7" edge="1"><mxGeometry relative="1" as="geometry"/></mxCell><mxCell id="Kv26vEHC08VBiixHVHI5-38" value="수정" style="ellipse;whiteSpace=wrap;html=1;" parent="1" vertex="1"><mxGeometry x="780" y="630" width="40" height="40" as="geometry"/></mxCell><mxCell id="Kv26vEHC08VBiixHVHI5-41" style="edgeStyle=orthogonalEdgeStyle;rounded=0;orthogonalLoop=1;jettySize=auto;html=1;" parent="1" source="Kv26vEHC08VBiixHVHI5-40" target="Kv26vEHC08VBiixHVHI5-7" edge="1"><mxGeometry relative="1" as="geometry"><Array as="points"><mxPoint x="850" y="600"/><mxPoint x="780" y="600"/></Array></mxGeometry></mxCell><mxCell id="Kv26vEHC08VBiixHVHI5-40" value="조회" style="ellipse;whiteSpace=wrap;html=1;" parent="1" vertex="1"><mxGeometry x="830" y="630" width="40" height="40" as="geometry"/></mxCell><mxCell id="gFiut0iDrLe7WYOQsWxN-4" style="edgeStyle=orthogonalEdgeStyle;rounded=0;orthogonalLoop=1;jettySize=auto;html=1;" parent="1" source="Kv26vEHC08VBiixHVHI5-45" target="Kv26vEHC08VBiixHVHI5-7" edge="1"><mxGeometry relative="1" as="geometry"><Array as="points"><mxPoint x="700" y="600"/><mxPoint x="780" y="600"/></Array></mxGeometry></mxCell><mxCell id="Kv26vEHC08VBiixHVHI5-45" value="삭제" style="ellipse;whiteSpace=wrap;html=1;" parent="1" vertex="1"><mxGeometry x="680" y="630" width="40" height="40" as="geometry"/></mxCell><mxCell id="JjDydGUEUOhYbfb6GzUT-4" style="edgeStyle=orthogonalEdgeStyle;rounded=0;orthogonalLoop=1;jettySize=auto;html=1;" parent="1" source="Kv26vEHC08VBiixHVHI5-55" target="Kv26vEHC08VBiixHVHI5-9" edge="1"><mxGeometry relative="1" as="geometry"><Array as="points"><mxPoint x="1355" y="570"/><mxPoint x="1355" y="570"/></Array></mxGeometry></mxCell><mxCell id="Kv26vEHC08VBiixHVHI5-55" value="PASS" style="ellipse;whiteSpace=wrap;html=1;" parent="1" vertex="1"><mxGeometry x="1415" y="550" width="40" height="40" as="geometry"/></mxCell><mxCell id="JjDydGUEUOhYbfb6GzUT-7" style="edgeStyle=orthogonalEdgeStyle;rounded=0;orthogonalLoop=1;jettySize=auto;html=1;" parent="1" source="Kv26vEHC08VBiixHVHI5-56" target="Kv26vEHC08VBiixHVHI5-9" edge="1"><mxGeometry relative="1" as="geometry"><Array as="points"><mxPoint x="1375" y="630"/><mxPoint x="1375" y="570"/></Array></mxGeometry></mxCell><mxCell id="Kv26vEHC08VBiixHVHI5-56" value="모바일" style="ellipse;whiteSpace=wrap;html=1;direction=south;" parent="1" vertex="1"><mxGeometry x="1415" y="610" width="40" height="40" as="geometry"/></mxCell><mxCell id="JjDydGUEUOhYbfb6GzUT-3" style="edgeStyle=orthogonalEdgeStyle;rounded=0;orthogonalLoop=1;jettySize=auto;html=1;" parent="1" source="Kv26vEHC08VBiixHVHI5-59" target="Kv26vEHC08VBiixHVHI5-9" edge="1"><mxGeometry relative="1" as="geometry"><Array as="points"><mxPoint x="1375" y="510"/><mxPoint x="1375" y="570"/></Array></mxGeometry></mxCell><mxCell id="Kv26vEHC08VBiixHVHI5-59" value="아이핀" style="ellipse;whiteSpace=wrap;html=1;" parent="1" vertex="1"><mxGeometry x="1415" y="490" width="40" height="40" as="geometry"/></mxCell><mxCell id="GONQGHevEgolc_Vj92QQ-3" style="edgeStyle=orthogonalEdgeStyle;rounded=0;orthogonalLoop=1;jettySize=auto;html=1;startArrow=none;startFill=0;endArrow=classic;endFill=1;" parent="1" source="Kv26vEHC08VBiixHVHI5-63" target="Kv26vEHC08VBiixHVHI5-10" edge="1"><mxGeometry relative="1" as="geometry"><Array as="points"><mxPoint x="1110" y="580"/><mxPoint x="1140" y="580"/><mxPoint x="1140" y="530"/></Array><mxPoint x="1129.9999684939976" y="529.9965217391305" as="targetPoint"/></mxGeometry></mxCell><mxCell id="Kv26vEHC08VBiixHVHI5-63" value="무통장" style="ellipse;whiteSpace=wrap;html=1;" parent="1" vertex="1"><mxGeometry x="1090" y="620.04" width="40" height="40" as="geometry"/></mxCell><mxCell id="UOlsy7yWXwOPzBkwPQhx-1" value="" style="edgeStyle=orthogonalEdgeStyle;rounded=0;orthogonalLoop=1;jettySize=auto;html=1;" parent="1" source="Kv26vEHC08VBiixHVHI5-67" target="tokyzkb4w2ci1-rdvXX9-3" edge="1"><mxGeometry relative="1" as="geometry"><Array as="points"/></mxGeometry></mxCell><mxCell id="Kv26vEHC08VBiixHVHI5-67" value="조회" style="ellipse;whiteSpace=wrap;html=1;" parent="1" vertex="1"><mxGeometry x="950" y="630" width="40" height="40" as="geometry"/></mxCell><mxCell id="tokyzkb4w2ci1-rdvXX9-2" value="extends" style="html=1;verticalAlign=bottom;endArrow=open;dashed=1;endSize=8;rounded=0;edgeStyle=orthogonalEdgeStyle;" parent="1" source="Kv26vEHC08VBiixHVHI5-11" target="Kv26vEHC08VBiixHVHI5-8" edge="1"><mxGeometry x="-0.0162" y="1" relative="1" as="geometry"><mxPoint x="775" y="170" as="sourcePoint"/><mxPoint x="1315.0000000000173" y="170" as="targetPoint"/><mxPoint as="offset"/></mxGeometry></mxCell><mxCell id="tokyzkb4w2ci1-rdvXX9-3" value="장바구니&lt;br&gt;관리" style="ellipse;whiteSpace=wrap;html=1;" parent="1" vertex="1"><mxGeometry x="915" y="510" width="60" height="60" as="geometry"/></mxCell><mxCell id="tokyzkb4w2ci1-rdvXX9-9" value="카드사" style="shape=umlActor;verticalLabelPosition=bottom;verticalAlign=top;html=1;" parent="1" vertex="1"><mxGeometry x="1215" y="580.04" width="30" height="60" as="geometry"/></mxCell><mxCell id="tokyzkb4w2ci1-rdvXX9-15" style="edgeStyle=orthogonalEdgeStyle;rounded=0;orthogonalLoop=1;jettySize=auto;html=1;" parent="1" source="Kv26vEHC08VBiixHVHI5-3" target="tokyzkb4w2ci1-rdvXX9-3" edge="1"><mxGeometry relative="1" as="geometry"><mxPoint x="950" y="320" as="sourcePoint"/><mxPoint x="649.6757273574524" y="292.0663531547656" as="targetPoint"/><Array as="points"><mxPoint x="825" y="390"/><mxPoint x="945" y="390"/></Array></mxGeometry></mxCell><mxCell id="JjDydGUEUOhYbfb6GzUT-8" style="edgeStyle=orthogonalEdgeStyle;rounded=0;orthogonalLoop=1;jettySize=auto;html=1;" parent="1" source="UOlsy7yWXwOPzBkwPQhx-2" target="tokyzkb4w2ci1-rdvXX9-3" edge="1"><mxGeometry relative="1" as="geometry"/></mxCell><mxCell id="UOlsy7yWXwOPzBkwPQhx-2" value="삭제" style="ellipse;whiteSpace=wrap;html=1;" parent="1" vertex="1"><mxGeometry x="900" y="630" width="40" height="40" as="geometry"/></mxCell><mxCell id="Kv26vEHC08VBiixHVHI5-62" value="카드" style="ellipse;whiteSpace=wrap;html=1;" parent="1" vertex="1"><mxGeometry x="1150" y="620.04" width="40" height="40" as="geometry"/></mxCell><mxCell id="UOlsy7yWXwOPzBkwPQhx-5" value="" style="edgeStyle=orthogonalEdgeStyle;rounded=0;orthogonalLoop=1;jettySize=auto;html=1;endArrow=none;startArrow=open;startFill=0;" parent="1" source="Kv26vEHC08VBiixHVHI5-10" target="Kv26vEHC08VBiixHVHI5-62" edge="1"><mxGeometry relative="1" as="geometry"><mxPoint x="1129.9999684939976" y="529.9965217391305" as="sourcePoint"/><mxPoint x="1000" y="580.04" as="targetPoint"/><Array as="points"><mxPoint x="1140" y="530"/><mxPoint x="1140" y="580"/><mxPoint x="1170" y="580"/></Array></mxGeometry></mxCell><mxCell id="UOlsy7yWXwOPzBkwPQhx-6" style="edgeStyle=orthogonalEdgeStyle;rounded=0;orthogonalLoop=1;jettySize=auto;html=1;" parent="1" source="Kv26vEHC08VBiixHVHI5-62" target="tokyzkb4w2ci1-rdvXX9-9" edge="1"><mxGeometry relative="1" as="geometry"><mxPoint x="1003" y="665" as="sourcePoint"/><mxPoint x="1067" y="717" as="targetPoint"/><Array as="points"><mxPoint x="1180" y="640"/><mxPoint x="1180" y="610"/></Array></mxGeometry></mxCell></root></mxGraphModel></diagram><diagram id="bULfts8UCHqkT_8KDw2p" name="Class"><mxGraphModel dx="1422" dy="728" grid="1" gridSize="10" guides="1" tooltips="1" connect="1" arrows="1" fold="1" page="1" pageScale="1" pageWidth="3300" pageHeight="4681" math="0" shadow="0"><root><mxCell id="0"/><mxCell id="1" parent="0"/><mxCell id="Th7XL-g5wkBTI_k0jqvb-1" value="MemAdmin" style="swimlane;fontStyle=1;align=center;verticalAlign=top;childLayout=stackLayout;horizontal=1;startSize=26;horizontalStack=0;resizeParent=1;resizeParentMax=0;resizeLast=0;collapsible=1;marginBottom=0;" parent="1" vertex="1"><mxGeometry x="950" y="490" width="160" height="112" as="geometry"/></mxCell><mxCell id="Th7XL-g5wkBTI_k0jqvb-2" value="- mcode : int;" style="text;strokeColor=none;fillColor=none;align=left;verticalAlign=top;spacingLeft=4;spacingRight=4;overflow=hidden;rotatable=0;points=[[0,0.5],[1,0.5]];portConstraint=eastwest;" parent="Th7XL-g5wkBTI_k0jqvb-1" vertex="1"><mxGeometry y="26" width="160" height="26" as="geometry"/></mxCell><mxCell id="FIO6IWRy26lA9qaqWzXT-32" value="- mname : String" style="text;strokeColor=none;fillColor=none;align=left;verticalAlign=top;spacingLeft=4;spacingRight=4;overflow=hidden;rotatable=0;points=[[0,0.5],[1,0.5]];portConstraint=eastwest;" parent="Th7XL-g5wkBTI_k0jqvb-1" vertex="1"><mxGeometry y="52" width="160" height="26" as="geometry"/></mxCell><mxCell id="Th7XL-g5wkBTI_k0jqvb-3" value="" style="line;strokeWidth=1;fillColor=none;align=left;verticalAlign=middle;spacingTop=-1;spacingLeft=3;spacingRight=3;rotatable=0;labelPosition=right;points=[];portConstraint=eastwest;strokeColor=inherit;" parent="Th7XL-g5wkBTI_k0jqvb-1" vertex="1"><mxGeometry y="78" width="160" height="8" as="geometry"/></mxCell><mxCell id="Th7XL-g5wkBTI_k0jqvb-4" value="+ method(type): type" style="text;strokeColor=none;fillColor=none;align=left;verticalAlign=top;spacingLeft=4;spacingRight=4;overflow=hidden;rotatable=0;points=[[0,0.5],[1,0.5]];portConstraint=eastwest;" parent="Th7XL-g5wkBTI_k0jqvb-1" vertex="1"><mxGeometry y="86" width="160" height="26" as="geometry"/></mxCell><mxCell id="Th7XL-g5wkBTI_k0jqvb-5" value="product" style="swimlane;fontStyle=1;align=center;verticalAlign=top;childLayout=stackLayout;horizontal=1;startSize=26;horizontalStack=0;resizeParent=1;resizeParentMax=0;resizeLast=0;collapsible=1;marginBottom=0;" parent="1" vertex="1"><mxGeometry x="610" y="490" width="160" height="164" as="geometry"/></mxCell><mxCell id="FIO6IWRy26lA9qaqWzXT-27" value="- pcode : int" style="text;strokeColor=none;fillColor=none;align=left;verticalAlign=top;spacingLeft=4;spacingRight=4;overflow=hidden;rotatable=0;points=[[0,0.5],[1,0.5]];portConstraint=eastwest;" parent="Th7XL-g5wkBTI_k0jqvb-5" vertex="1"><mxGeometry y="26" width="160" height="26" as="geometry"/></mxCell><mxCell id="Th7XL-g5wkBTI_k0jqvb-6" value="- pname : String&#10;" style="text;strokeColor=none;fillColor=none;align=left;verticalAlign=top;spacingLeft=4;spacingRight=4;overflow=hidden;rotatable=0;points=[[0,0.5],[1,0.5]];portConstraint=eastwest;" parent="Th7XL-g5wkBTI_k0jqvb-5" vertex="1"><mxGeometry y="52" width="160" height="26" as="geometry"/></mxCell><mxCell id="FIO6IWRy26lA9qaqWzXT-28" value="- sort : String" style="text;strokeColor=none;fillColor=none;align=left;verticalAlign=top;spacingLeft=4;spacingRight=4;overflow=hidden;rotatable=0;points=[[0,0.5],[1,0.5]];portConstraint=eastwest;" parent="Th7XL-g5wkBTI_k0jqvb-5" vertex="1"><mxGeometry y="78" width="160" height="26" as="geometry"/></mxCell><mxCell id="FIO6IWRy26lA9qaqWzXT-48" value="- price : int" style="text;strokeColor=none;fillColor=none;align=left;verticalAlign=top;spacingLeft=4;spacingRight=4;overflow=hidden;rotatable=0;points=[[0,0.5],[1,0.5]];portConstraint=eastwest;" parent="Th7XL-g5wkBTI_k0jqvb-5" vertex="1"><mxGeometry y="104" width="160" height="26" as="geometry"/></mxCell><mxCell id="Th7XL-g5wkBTI_k0jqvb-7" value="" style="line;strokeWidth=1;fillColor=none;align=left;verticalAlign=middle;spacingTop=-1;spacingLeft=3;spacingRight=3;rotatable=0;labelPosition=right;points=[];portConstraint=eastwest;strokeColor=inherit;" parent="Th7XL-g5wkBTI_k0jqvb-5" vertex="1"><mxGeometry y="130" width="160" height="8" as="geometry"/></mxCell><mxCell id="Th7XL-g5wkBTI_k0jqvb-8" value="+ method(type): type" style="text;strokeColor=none;fillColor=none;align=left;verticalAlign=top;spacingLeft=4;spacingRight=4;overflow=hidden;rotatable=0;points=[[0,0.5],[1,0.5]];portConstraint=eastwest;" parent="Th7XL-g5wkBTI_k0jqvb-5" vertex="1"><mxGeometry y="138" width="160" height="26" as="geometry"/></mxCell><mxCell id="FIO6IWRy26lA9qaqWzXT-1" value="Member" style="swimlane;fontStyle=1;align=center;verticalAlign=top;childLayout=stackLayout;horizontal=1;startSize=26;horizontalStack=0;resizeParent=1;resizeParentMax=0;resizeLast=0;collapsible=1;marginBottom=0;" parent="1" vertex="1"><mxGeometry x="570" y="870" width="160" height="134" as="geometry"/></mxCell><mxCell id="FIO6IWRy26lA9qaqWzXT-29" value="- mcode : int" style="text;strokeColor=none;fillColor=none;align=left;verticalAlign=top;spacingLeft=4;spacingRight=4;overflow=hidden;rotatable=0;points=[[0,0.5],[1,0.5]];portConstraint=eastwest;" parent="FIO6IWRy26lA9qaqWzXT-1" vertex="1"><mxGeometry y="26" width="160" height="22" as="geometry"/></mxCell><mxCell id="FIO6IWRy26lA9qaqWzXT-2" value="- mname : String" style="text;strokeColor=none;fillColor=none;align=left;verticalAlign=top;spacingLeft=4;spacingRight=4;overflow=hidden;rotatable=0;points=[[0,0.5],[1,0.5]];portConstraint=eastwest;" parent="FIO6IWRy26lA9qaqWzXT-1" vertex="1"><mxGeometry y="48" width="160" height="26" as="geometry"/></mxCell><mxCell id="FIO6IWRy26lA9qaqWzXT-25" value="- addr : String" style="text;strokeColor=none;fillColor=none;align=left;verticalAlign=top;spacingLeft=4;spacingRight=4;overflow=hidden;rotatable=0;points=[[0,0.5],[1,0.5]];portConstraint=eastwest;" parent="FIO6IWRy26lA9qaqWzXT-1" vertex="1"><mxGeometry y="74" width="160" height="26" as="geometry"/></mxCell><mxCell id="FIO6IWRy26lA9qaqWzXT-3" value="" style="line;strokeWidth=1;fillColor=none;align=left;verticalAlign=middle;spacingTop=-1;spacingLeft=3;spacingRight=3;rotatable=0;labelPosition=right;points=[];portConstraint=eastwest;strokeColor=inherit;" parent="FIO6IWRy26lA9qaqWzXT-1" vertex="1"><mxGeometry y="100" width="160" height="8" as="geometry"/></mxCell><mxCell id="FIO6IWRy26lA9qaqWzXT-4" value="+ method(type): type" style="text;strokeColor=none;fillColor=none;align=left;verticalAlign=top;spacingLeft=4;spacingRight=4;overflow=hidden;rotatable=0;points=[[0,0.5],[1,0.5]];portConstraint=eastwest;" parent="FIO6IWRy26lA9qaqWzXT-1" vertex="1"><mxGeometry y="108" width="160" height="26" as="geometry"/></mxCell><mxCell id="FIO6IWRy26lA9qaqWzXT-9" value="Keeping" style="swimlane;fontStyle=1;align=center;verticalAlign=top;childLayout=stackLayout;horizontal=1;startSize=26;horizontalStack=0;resizeParent=1;resizeParentMax=0;resizeLast=0;collapsible=1;marginBottom=0;" parent="1" vertex="1"><mxGeometry x="960" y="623" width="160" height="164" as="geometry"/></mxCell><mxCell id="FIO6IWRy26lA9qaqWzXT-10" value="- pcode : int" style="text;strokeColor=none;fillColor=none;align=left;verticalAlign=top;spacingLeft=4;spacingRight=4;overflow=hidden;rotatable=0;points=[[0,0.5],[1,0.5]];portConstraint=eastwest;" parent="FIO6IWRy26lA9qaqWzXT-9" vertex="1"><mxGeometry y="26" width="160" height="26" as="geometry"/></mxCell><mxCell id="FIO6IWRy26lA9qaqWzXT-33" value="- pname : String&#10;" style="text;strokeColor=none;fillColor=none;align=left;verticalAlign=top;spacingLeft=4;spacingRight=4;overflow=hidden;rotatable=0;points=[[0,0.5],[1,0.5]];portConstraint=eastwest;" parent="FIO6IWRy26lA9qaqWzXT-9" vertex="1"><mxGeometry y="52" width="160" height="26" as="geometry"/></mxCell><mxCell id="FIO6IWRy26lA9qaqWzXT-34" value="- sort : String" style="text;strokeColor=none;fillColor=none;align=left;verticalAlign=top;spacingLeft=4;spacingRight=4;overflow=hidden;rotatable=0;points=[[0,0.5],[1,0.5]];portConstraint=eastwest;" parent="FIO6IWRy26lA9qaqWzXT-9" vertex="1"><mxGeometry y="78" width="160" height="26" as="geometry"/></mxCell><mxCell id="FIO6IWRy26lA9qaqWzXT-50" value="- amount : int" style="text;strokeColor=none;fillColor=none;align=left;verticalAlign=top;spacingLeft=4;spacingRight=4;overflow=hidden;rotatable=0;points=[[0,0.5],[1,0.5]];portConstraint=eastwest;" parent="FIO6IWRy26lA9qaqWzXT-9" vertex="1"><mxGeometry y="104" width="160" height="26" as="geometry"/></mxCell><mxCell id="FIO6IWRy26lA9qaqWzXT-11" value="" style="line;strokeWidth=1;fillColor=none;align=left;verticalAlign=middle;spacingTop=-1;spacingLeft=3;spacingRight=3;rotatable=0;labelPosition=right;points=[];portConstraint=eastwest;strokeColor=inherit;" parent="FIO6IWRy26lA9qaqWzXT-9" vertex="1"><mxGeometry y="130" width="160" height="8" as="geometry"/></mxCell><mxCell id="FIO6IWRy26lA9qaqWzXT-12" value="+ method(type): type" style="text;strokeColor=none;fillColor=none;align=left;verticalAlign=top;spacingLeft=4;spacingRight=4;overflow=hidden;rotatable=0;points=[[0,0.5],[1,0.5]];portConstraint=eastwest;" parent="FIO6IWRy26lA9qaqWzXT-9" vertex="1"><mxGeometry y="138" width="160" height="26" as="geometry"/></mxCell><mxCell id="FIO6IWRy26lA9qaqWzXT-35" value="productAdmin" style="swimlane;fontStyle=1;align=center;verticalAlign=top;childLayout=stackLayout;horizontal=1;startSize=26;horizontalStack=0;resizeParent=1;resizeParentMax=0;resizeLast=0;collapsible=1;marginBottom=0;" parent="1" vertex="1"><mxGeometry x="1210" y="610" width="160" height="190" as="geometry"><mxRectangle x="880" y="920" width="120" height="30" as="alternateBounds"/></mxGeometry></mxCell><mxCell id="FIO6IWRy26lA9qaqWzXT-36" value="- pcode : int" style="text;strokeColor=none;fillColor=none;align=left;verticalAlign=top;spacingLeft=4;spacingRight=4;overflow=hidden;rotatable=0;points=[[0,0.5],[1,0.5]];portConstraint=eastwest;" parent="FIO6IWRy26lA9qaqWzXT-35" vertex="1"><mxGeometry y="26" width="160" height="26" as="geometry"/></mxCell><mxCell id="FIO6IWRy26lA9qaqWzXT-37" value="- pname : String&#10;" style="text;strokeColor=none;fillColor=none;align=left;verticalAlign=top;spacingLeft=4;spacingRight=4;overflow=hidden;rotatable=0;points=[[0,0.5],[1,0.5]];portConstraint=eastwest;" parent="FIO6IWRy26lA9qaqWzXT-35" vertex="1"><mxGeometry y="52" width="160" height="26" as="geometry"/></mxCell><mxCell id="FIO6IWRy26lA9qaqWzXT-39" value="- sort : String" style="text;strokeColor=none;fillColor=none;align=left;verticalAlign=top;spacingLeft=4;spacingRight=4;overflow=hidden;rotatable=0;points=[[0,0.5],[1,0.5]];portConstraint=eastwest;" parent="FIO6IWRy26lA9qaqWzXT-35" vertex="1"><mxGeometry y="78" width="160" height="26" as="geometry"/></mxCell><mxCell id="FIO6IWRy26lA9qaqWzXT-49" value="- price : int" style="text;strokeColor=none;fillColor=none;align=left;verticalAlign=top;spacingLeft=4;spacingRight=4;overflow=hidden;rotatable=0;points=[[0,0.5],[1,0.5]];portConstraint=eastwest;" parent="FIO6IWRy26lA9qaqWzXT-35" vertex="1"><mxGeometry y="104" width="160" height="26" as="geometry"/></mxCell><mxCell id="FIO6IWRy26lA9qaqWzXT-38" value="- amount : int" style="text;strokeColor=none;fillColor=none;align=left;verticalAlign=top;spacingLeft=4;spacingRight=4;overflow=hidden;rotatable=0;points=[[0,0.5],[1,0.5]];portConstraint=eastwest;" parent="FIO6IWRy26lA9qaqWzXT-35" vertex="1"><mxGeometry y="130" width="160" height="26" as="geometry"/></mxCell><mxCell id="FIO6IWRy26lA9qaqWzXT-40" value="" style="line;strokeWidth=1;fillColor=none;align=left;verticalAlign=middle;spacingTop=-1;spacingLeft=3;spacingRight=3;rotatable=0;labelPosition=right;points=[];portConstraint=eastwest;strokeColor=inherit;" parent="FIO6IWRy26lA9qaqWzXT-35" vertex="1"><mxGeometry y="156" width="160" height="8" as="geometry"/></mxCell><mxCell id="FIO6IWRy26lA9qaqWzXT-41" value="+ method(type): type" style="text;strokeColor=none;fillColor=none;align=left;verticalAlign=top;spacingLeft=4;spacingRight=4;overflow=hidden;rotatable=0;points=[[0,0.5],[1,0.5]];portConstraint=eastwest;" parent="FIO6IWRy26lA9qaqWzXT-35" vertex="1"><mxGeometry y="164" width="160" height="26" as="geometry"/></mxCell><mxCell id="FIO6IWRy26lA9qaqWzXT-42" value="purchase" style="swimlane;fontStyle=1;align=center;verticalAlign=top;childLayout=stackLayout;horizontal=1;startSize=26;horizontalStack=0;resizeParent=1;resizeParentMax=0;resizeLast=0;collapsible=1;marginBottom=0;" parent="1" vertex="1"><mxGeometry x="950" y="890" width="160" height="138" as="geometry"/></mxCell><mxCell id="FIO6IWRy26lA9qaqWzXT-43" value="- pcode : int" style="text;strokeColor=none;fillColor=none;align=left;verticalAlign=top;spacingLeft=4;spacingRight=4;overflow=hidden;rotatable=0;points=[[0,0.5],[1,0.5]];portConstraint=eastwest;" parent="FIO6IWRy26lA9qaqWzXT-42" vertex="1"><mxGeometry y="26" width="160" height="26" as="geometry"/></mxCell><mxCell id="FIO6IWRy26lA9qaqWzXT-44" value="- pname : String&#10;" style="text;strokeColor=none;fillColor=none;align=left;verticalAlign=top;spacingLeft=4;spacingRight=4;overflow=hidden;rotatable=0;points=[[0,0.5],[1,0.5]];portConstraint=eastwest;" parent="FIO6IWRy26lA9qaqWzXT-42" vertex="1"><mxGeometry y="52" width="160" height="26" as="geometry"/></mxCell><mxCell id="FIO6IWRy26lA9qaqWzXT-45" value="- sort : String" style="text;strokeColor=none;fillColor=none;align=left;verticalAlign=top;spacingLeft=4;spacingRight=4;overflow=hidden;rotatable=0;points=[[0,0.5],[1,0.5]];portConstraint=eastwest;" parent="FIO6IWRy26lA9qaqWzXT-42" vertex="1"><mxGeometry y="78" width="160" height="26" as="geometry"/></mxCell><mxCell id="FIO6IWRy26lA9qaqWzXT-46" value="" style="line;strokeWidth=1;fillColor=none;align=left;verticalAlign=middle;spacingTop=-1;spacingLeft=3;spacingRight=3;rotatable=0;labelPosition=right;points=[];portConstraint=eastwest;strokeColor=inherit;" parent="FIO6IWRy26lA9qaqWzXT-42" vertex="1"><mxGeometry y="104" width="160" height="8" as="geometry"/></mxCell><mxCell id="FIO6IWRy26lA9qaqWzXT-47" value="+ method(type): type" style="text;strokeColor=none;fillColor=none;align=left;verticalAlign=top;spacingLeft=4;spacingRight=4;overflow=hidden;rotatable=0;points=[[0,0.5],[1,0.5]];portConstraint=eastwest;" parent="FIO6IWRy26lA9qaqWzXT-42" vertex="1"><mxGeometry y="112" width="160" height="26" as="geometry"/></mxCell></root></mxGraphModel></diagram><diagram id="Lfs-iDrzNEPbWop_GKH7" name="시퀀스"><mxGraphModel dx="1422" dy="728" grid="1" gridSize="10" guides="1" tooltips="1" connect="1" arrows="1" fold="1" page="1" pageScale="1" pageWidth="827" pageHeight="1169" math="0" shadow="0"><root><mxCell id="0"/><mxCell id="1" parent="0"/></root></mxGraphModel></diagram><diagram id="Sk9gu6rQnio5hvl8QulZ" name="MVC"><mxGraphModel dx="2819" dy="615" grid="1" gridSize="10" guides="1" tooltips="1" connect="1" arrows="1" fold="1" page="1" pageScale="1" pageWidth="827" pageHeight="1169" math="0" shadow="0"><root><mxCell id="0"/><mxCell id="1" style="" parent="0"/><mxCell id="ZgN52ImHQu7eaq46eePh-1" value="" style="rounded=0;whiteSpace=wrap;html=1;" parent="1" vertex="1"><mxGeometry x="-850" y="140" width="2520" height="960" as="geometry"/></mxCell><mxCell id="ZgN52ImHQu7eaq46eePh-54" value="Model" style="shape=umlFrame;whiteSpace=wrap;html=1;" parent="1" vertex="1"><mxGeometry x="960" y="536" width="650" height="504" as="geometry"/></mxCell><mxCell id="ZgN52ImHQu7eaq46eePh-31" value="Controller" style="shape=umlFrame;whiteSpace=wrap;html=1;" parent="1" vertex="1"><mxGeometry x="150" y="270" width="650" height="770" as="geometry"/></mxCell><mxCell id="ZgN52ImHQu7eaq46eePh-26" style="edgeStyle=orthogonalEdgeStyle;rounded=0;orthogonalLoop=1;jettySize=auto;html=1;endArrow=diamondThin;endFill=1;" parent="1" source="ZgN52ImHQu7eaq46eePh-2" target="ZgN52ImHQu7eaq46eePh-6" edge="1"><mxGeometry relative="1" as="geometry"/></mxCell><mxCell id="ZgN52ImHQu7eaq46eePh-2" value="Front_Controller" style="swimlane;fontStyle=1;align=center;verticalAlign=top;childLayout=stackLayout;horizontal=1;startSize=26;horizontalStack=0;resizeParent=1;resizeParentMax=0;resizeLast=0;collapsible=1;marginBottom=0;" parent="1" vertex="1"><mxGeometry x="170" y="450" width="160" height="86" as="geometry"/></mxCell><mxCell id="ZgN52ImHQu7eaq46eePh-3" value="+ field: type" style="text;strokeColor=none;fillColor=none;align=left;verticalAlign=top;spacingLeft=4;spacingRight=4;overflow=hidden;rotatable=0;points=[[0,0.5],[1,0.5]];portConstraint=eastwest;" parent="ZgN52ImHQu7eaq46eePh-2" vertex="1"><mxGeometry y="26" width="160" height="26" as="geometry"/></mxCell><mxCell id="ZgN52ImHQu7eaq46eePh-4" value="" style="line;strokeWidth=1;fillColor=none;align=left;verticalAlign=middle;spacingTop=-1;spacingLeft=3;spacingRight=3;rotatable=0;labelPosition=right;points=[];portConstraint=eastwest;strokeColor=inherit;" parent="ZgN52ImHQu7eaq46eePh-2" vertex="1"><mxGeometry y="52" width="160" height="8" as="geometry"/></mxCell><mxCell id="ZgN52ImHQu7eaq46eePh-5" value="+ method(type): type" style="text;strokeColor=none;fillColor=none;align=left;verticalAlign=top;spacingLeft=4;spacingRight=4;overflow=hidden;rotatable=0;points=[[0,0.5],[1,0.5]];portConstraint=eastwest;" parent="ZgN52ImHQu7eaq46eePh-2" vertex="1"><mxGeometry y="60" width="160" height="26" as="geometry"/></mxCell><mxCell id="ZgN52ImHQu7eaq46eePh-32" style="edgeStyle=orthogonalEdgeStyle;rounded=0;orthogonalLoop=1;jettySize=auto;html=1;dashed=1;endArrow=open;endFill=0;" parent="1" source="ZgN52ImHQu7eaq46eePh-6" target="ZgN52ImHQu7eaq46eePh-14" edge="1"><mxGeometry relative="1" as="geometry"/></mxCell><mxCell id="ZgN52ImHQu7eaq46eePh-6" value="Sub_Controller" style="swimlane;fontStyle=1;align=center;verticalAlign=top;childLayout=stackLayout;horizontal=1;startSize=26;horizontalStack=0;resizeParent=1;resizeParentMax=0;resizeLast=0;collapsible=1;marginBottom=0;" parent="1" vertex="1"><mxGeometry x="380" y="450" width="160" height="86" as="geometry"/></mxCell><mxCell id="ZgN52ImHQu7eaq46eePh-7" value="+ field: type" style="text;strokeColor=none;fillColor=none;align=left;verticalAlign=top;spacingLeft=4;spacingRight=4;overflow=hidden;rotatable=0;points=[[0,0.5],[1,0.5]];portConstraint=eastwest;" parent="ZgN52ImHQu7eaq46eePh-6" vertex="1"><mxGeometry y="26" width="160" height="26" as="geometry"/></mxCell><mxCell id="ZgN52ImHQu7eaq46eePh-8" value="" style="line;strokeWidth=1;fillColor=none;align=left;verticalAlign=middle;spacingTop=-1;spacingLeft=3;spacingRight=3;rotatable=0;labelPosition=right;points=[];portConstraint=eastwest;strokeColor=inherit;" parent="ZgN52ImHQu7eaq46eePh-6" vertex="1"><mxGeometry y="52" width="160" height="8" as="geometry"/></mxCell><mxCell id="ZgN52ImHQu7eaq46eePh-9" value="+ method(type): type" style="text;strokeColor=none;fillColor=none;align=left;verticalAlign=top;spacingLeft=4;spacingRight=4;overflow=hidden;rotatable=0;points=[[0,0.5],[1,0.5]];portConstraint=eastwest;" parent="ZgN52ImHQu7eaq46eePh-6" vertex="1"><mxGeometry y="60" width="160" height="26" as="geometry"/></mxCell><mxCell id="ZgN52ImHQu7eaq46eePh-27" style="edgeStyle=orthogonalEdgeStyle;rounded=0;orthogonalLoop=1;jettySize=auto;html=1;endArrow=block;endFill=0;" parent="1" source="ZgN52ImHQu7eaq46eePh-10" target="ZgN52ImHQu7eaq46eePh-6" edge="1"><mxGeometry relative="1" as="geometry"/></mxCell><mxCell id="ZgN52ImHQu7eaq46eePh-85" style="edgeStyle=orthogonalEdgeStyle;rounded=0;orthogonalLoop=1;jettySize=auto;html=1;endArrow=diamondThin;endFill=1;" parent="1" source="ZgN52ImHQu7eaq46eePh-10" target="ZgN52ImHQu7eaq46eePh-79" edge="1"><mxGeometry relative="1" as="geometry"/></mxCell><mxCell id="ZgN52ImHQu7eaq46eePh-10" value="상품" style="swimlane;fontStyle=1;align=center;verticalAlign=top;childLayout=stackLayout;horizontal=1;startSize=26;horizontalStack=0;resizeParent=1;resizeParentMax=0;resizeLast=0;collapsible=1;marginBottom=0;" parent="1" vertex="1"><mxGeometry x="600" y="300" width="160" height="86" as="geometry"/></mxCell><mxCell id="ZgN52ImHQu7eaq46eePh-11" value="+ field: type" style="text;strokeColor=none;fillColor=none;align=left;verticalAlign=top;spacingLeft=4;spacingRight=4;overflow=hidden;rotatable=0;points=[[0,0.5],[1,0.5]];portConstraint=eastwest;" parent="ZgN52ImHQu7eaq46eePh-10" vertex="1"><mxGeometry y="26" width="160" height="26" as="geometry"/></mxCell><mxCell id="ZgN52ImHQu7eaq46eePh-12" value="" style="line;strokeWidth=1;fillColor=none;align=left;verticalAlign=middle;spacingTop=-1;spacingLeft=3;spacingRight=3;rotatable=0;labelPosition=right;points=[];portConstraint=eastwest;strokeColor=inherit;" parent="ZgN52ImHQu7eaq46eePh-10" vertex="1"><mxGeometry y="52" width="160" height="8" as="geometry"/></mxCell><mxCell id="ZgN52ImHQu7eaq46eePh-13" value="+ method(type): type" style="text;strokeColor=none;fillColor=none;align=left;verticalAlign=top;spacingLeft=4;spacingRight=4;overflow=hidden;rotatable=0;points=[[0,0.5],[1,0.5]];portConstraint=eastwest;" parent="ZgN52ImHQu7eaq46eePh-10" vertex="1"><mxGeometry y="60" width="160" height="26" as="geometry"/></mxCell><mxCell id="ZgN52ImHQu7eaq46eePh-14" value="DTO" style="swimlane;fontStyle=1;align=center;verticalAlign=top;childLayout=stackLayout;horizontal=1;startSize=26;horizontalStack=0;resizeParent=1;resizeParentMax=0;resizeLast=0;collapsible=1;marginBottom=0;" parent="1" vertex="1"><mxGeometry x="840" y="450" width="90" height="86" as="geometry"/></mxCell><mxCell id="ZgN52ImHQu7eaq46eePh-15" value="-" style="text;strokeColor=none;fillColor=none;align=left;verticalAlign=top;spacingLeft=4;spacingRight=4;overflow=hidden;rotatable=0;points=[[0,0.5],[1,0.5]];portConstraint=eastwest;" parent="ZgN52ImHQu7eaq46eePh-14" vertex="1"><mxGeometry y="26" width="90" height="26" as="geometry"/></mxCell><mxCell id="ZgN52ImHQu7eaq46eePh-16" value="" style="line;strokeWidth=1;fillColor=none;align=left;verticalAlign=middle;spacingTop=-1;spacingLeft=3;spacingRight=3;rotatable=0;labelPosition=right;points=[];portConstraint=eastwest;strokeColor=inherit;" parent="ZgN52ImHQu7eaq46eePh-14" vertex="1"><mxGeometry y="52" width="90" height="8" as="geometry"/></mxCell><mxCell id="ZgN52ImHQu7eaq46eePh-17" value="+" style="text;strokeColor=none;fillColor=none;align=left;verticalAlign=top;spacingLeft=4;spacingRight=4;overflow=hidden;rotatable=0;points=[[0,0.5],[1,0.5]];portConstraint=eastwest;" parent="ZgN52ImHQu7eaq46eePh-14" vertex="1"><mxGeometry y="60" width="90" height="26" as="geometry"/></mxCell><mxCell id="ZgN52ImHQu7eaq46eePh-29" style="edgeStyle=orthogonalEdgeStyle;rounded=0;orthogonalLoop=1;jettySize=auto;html=1;endArrow=block;endFill=0;" parent="1" source="ZgN52ImHQu7eaq46eePh-18" target="ZgN52ImHQu7eaq46eePh-6" edge="1"><mxGeometry relative="1" as="geometry"/></mxCell><mxCell id="ZgN52ImHQu7eaq46eePh-84" style="edgeStyle=orthogonalEdgeStyle;rounded=0;orthogonalLoop=1;jettySize=auto;html=1;endArrow=diamondThin;endFill=1;" parent="1" source="ZgN52ImHQu7eaq46eePh-18" target="ZgN52ImHQu7eaq46eePh-55" edge="1"><mxGeometry relative="1" as="geometry"><Array as="points"><mxPoint x="960" y="633"/><mxPoint x="960" y="633"/></Array></mxGeometry></mxCell><mxCell id="ZgN52ImHQu7eaq46eePh-18" value="회원" style="swimlane;fontStyle=1;align=center;verticalAlign=top;childLayout=stackLayout;horizontal=1;startSize=26;horizontalStack=0;resizeParent=1;resizeParentMax=0;resizeLast=0;collapsible=1;marginBottom=0;" parent="1" vertex="1"><mxGeometry x="600" y="590" width="160" height="86" as="geometry"/></mxCell><mxCell id="ZgN52ImHQu7eaq46eePh-19" value="+ field: type" style="text;strokeColor=none;fillColor=none;align=left;verticalAlign=top;spacingLeft=4;spacingRight=4;overflow=hidden;rotatable=0;points=[[0,0.5],[1,0.5]];portConstraint=eastwest;" parent="ZgN52ImHQu7eaq46eePh-18" vertex="1"><mxGeometry y="26" width="160" height="26" as="geometry"/></mxCell><mxCell id="ZgN52ImHQu7eaq46eePh-20" value="" style="line;strokeWidth=1;fillColor=none;align=left;verticalAlign=middle;spacingTop=-1;spacingLeft=3;spacingRight=3;rotatable=0;labelPosition=right;points=[];portConstraint=eastwest;strokeColor=inherit;" parent="ZgN52ImHQu7eaq46eePh-18" vertex="1"><mxGeometry y="52" width="160" height="8" as="geometry"/></mxCell><mxCell id="ZgN52ImHQu7eaq46eePh-21" value="+ method(type): type" style="text;strokeColor=none;fillColor=none;align=left;verticalAlign=top;spacingLeft=4;spacingRight=4;overflow=hidden;rotatable=0;points=[[0,0.5],[1,0.5]];portConstraint=eastwest;" parent="ZgN52ImHQu7eaq46eePh-18" vertex="1"><mxGeometry y="60" width="160" height="26" as="geometry"/></mxCell><mxCell id="ZgN52ImHQu7eaq46eePh-30" style="edgeStyle=orthogonalEdgeStyle;rounded=0;orthogonalLoop=1;jettySize=auto;html=1;endArrow=block;endFill=0;" parent="1" source="ZgN52ImHQu7eaq46eePh-22" target="ZgN52ImHQu7eaq46eePh-6" edge="1"><mxGeometry relative="1" as="geometry"><Array as="points"><mxPoint x="450" y="763"/></Array></mxGeometry></mxCell><mxCell id="ZgN52ImHQu7eaq46eePh-83" style="edgeStyle=orthogonalEdgeStyle;rounded=0;orthogonalLoop=1;jettySize=auto;html=1;endArrow=diamondThin;endFill=1;" parent="1" source="ZgN52ImHQu7eaq46eePh-22" target="ZgN52ImHQu7eaq46eePh-72" edge="1"><mxGeometry relative="1" as="geometry"><Array as="points"><mxPoint x="830" y="753"/><mxPoint x="830" y="753"/></Array></mxGeometry></mxCell><mxCell id="ZgN52ImHQu7eaq46eePh-22" value="인증" style="swimlane;fontStyle=1;align=center;verticalAlign=top;childLayout=stackLayout;horizontal=1;startSize=26;horizontalStack=0;resizeParent=1;resizeParentMax=0;resizeLast=0;collapsible=1;marginBottom=0;" parent="1" vertex="1"><mxGeometry x="600" y="720" width="160" height="86" as="geometry"/></mxCell><mxCell id="ZgN52ImHQu7eaq46eePh-23" value="+ field: type" style="text;strokeColor=none;fillColor=none;align=left;verticalAlign=top;spacingLeft=4;spacingRight=4;overflow=hidden;rotatable=0;points=[[0,0.5],[1,0.5]];portConstraint=eastwest;" parent="ZgN52ImHQu7eaq46eePh-22" vertex="1"><mxGeometry y="26" width="160" height="26" as="geometry"/></mxCell><mxCell id="ZgN52ImHQu7eaq46eePh-24" value="" style="line;strokeWidth=1;fillColor=none;align=left;verticalAlign=middle;spacingTop=-1;spacingLeft=3;spacingRight=3;rotatable=0;labelPosition=right;points=[];portConstraint=eastwest;strokeColor=inherit;" parent="ZgN52ImHQu7eaq46eePh-22" vertex="1"><mxGeometry y="52" width="160" height="8" as="geometry"/></mxCell><mxCell id="ZgN52ImHQu7eaq46eePh-25" value="+ method(type): type" style="text;strokeColor=none;fillColor=none;align=left;verticalAlign=top;spacingLeft=4;spacingRight=4;overflow=hidden;rotatable=0;points=[[0,0.5],[1,0.5]];portConstraint=eastwest;" parent="ZgN52ImHQu7eaq46eePh-22" vertex="1"><mxGeometry y="60" width="160" height="26" as="geometry"/></mxCell><mxCell id="ZgN52ImHQu7eaq46eePh-33" value="Model" style="shape=umlFrame;whiteSpace=wrap;html=1;" parent="1" vertex="1"><mxGeometry x="960" y="270" width="650" height="150" as="geometry"/></mxCell><mxCell id="ZgN52ImHQu7eaq46eePh-76" style="edgeStyle=orthogonalEdgeStyle;rounded=0;orthogonalLoop=1;jettySize=auto;html=1;endArrow=block;endFill=0;" parent="1" source="ZgN52ImHQu7eaq46eePh-34" target="ZgN52ImHQu7eaq46eePh-14" edge="1"><mxGeometry relative="1" as="geometry"><Array as="points"><mxPoint x="1490" y="493"/></Array></mxGeometry></mxCell><mxCell id="ZgN52ImHQu7eaq46eePh-34" value="회원DTO" style="swimlane;fontStyle=1;align=center;verticalAlign=top;childLayout=stackLayout;horizontal=1;startSize=26;horizontalStack=0;resizeParent=1;resizeParentMax=0;resizeLast=0;collapsible=1;marginBottom=0;" parent="1" vertex="1"><mxGeometry x="1410" y="585" width="160" height="86" as="geometry"/></mxCell><mxCell id="ZgN52ImHQu7eaq46eePh-35" value="+ field: type" style="text;strokeColor=none;fillColor=none;align=left;verticalAlign=top;spacingLeft=4;spacingRight=4;overflow=hidden;rotatable=0;points=[[0,0.5],[1,0.5]];portConstraint=eastwest;" parent="ZgN52ImHQu7eaq46eePh-34" vertex="1"><mxGeometry y="26" width="160" height="26" as="geometry"/></mxCell><mxCell id="ZgN52ImHQu7eaq46eePh-36" value="" style="line;strokeWidth=1;fillColor=none;align=left;verticalAlign=middle;spacingTop=-1;spacingLeft=3;spacingRight=3;rotatable=0;labelPosition=right;points=[];portConstraint=eastwest;strokeColor=inherit;" parent="ZgN52ImHQu7eaq46eePh-34" vertex="1"><mxGeometry y="52" width="160" height="8" as="geometry"/></mxCell><mxCell id="ZgN52ImHQu7eaq46eePh-37" value="+ method(type): type" style="text;strokeColor=none;fillColor=none;align=left;verticalAlign=top;spacingLeft=4;spacingRight=4;overflow=hidden;rotatable=0;points=[[0,0.5],[1,0.5]];portConstraint=eastwest;" parent="ZgN52ImHQu7eaq46eePh-34" vertex="1"><mxGeometry y="60" width="160" height="26" as="geometry"/></mxCell><mxCell id="ZgN52ImHQu7eaq46eePh-87" value="USE" style="edgeStyle=orthogonalEdgeStyle;rounded=0;orthogonalLoop=1;jettySize=auto;html=1;endArrow=open;endFill=0;dashed=1;" parent="1" source="ZgN52ImHQu7eaq46eePh-42" target="ZgN52ImHQu7eaq46eePh-34" edge="1"><mxGeometry relative="1" as="geometry"/></mxCell><mxCell id="ZgN52ImHQu7eaq46eePh-42" value="회원DAO" style="swimlane;fontStyle=1;align=center;verticalAlign=top;childLayout=stackLayout;horizontal=1;startSize=26;horizontalStack=0;resizeParent=1;resizeParentMax=0;resizeLast=0;collapsible=1;marginBottom=0;" parent="1" vertex="1"><mxGeometry x="1200" y="585" width="160" height="86" as="geometry"/></mxCell><mxCell id="ZgN52ImHQu7eaq46eePh-43" value="+ field: type" style="text;strokeColor=none;fillColor=none;align=left;verticalAlign=top;spacingLeft=4;spacingRight=4;overflow=hidden;rotatable=0;points=[[0,0.5],[1,0.5]];portConstraint=eastwest;" parent="ZgN52ImHQu7eaq46eePh-42" vertex="1"><mxGeometry y="26" width="160" height="26" as="geometry"/></mxCell><mxCell id="ZgN52ImHQu7eaq46eePh-44" value="" style="line;strokeWidth=1;fillColor=none;align=left;verticalAlign=middle;spacingTop=-1;spacingLeft=3;spacingRight=3;rotatable=0;labelPosition=right;points=[];portConstraint=eastwest;strokeColor=inherit;" parent="ZgN52ImHQu7eaq46eePh-42" vertex="1"><mxGeometry y="52" width="160" height="8" as="geometry"/></mxCell><mxCell id="ZgN52ImHQu7eaq46eePh-45" value="+ method(type): type" style="text;strokeColor=none;fillColor=none;align=left;verticalAlign=top;spacingLeft=4;spacingRight=4;overflow=hidden;rotatable=0;points=[[0,0.5],[1,0.5]];portConstraint=eastwest;" parent="ZgN52ImHQu7eaq46eePh-42" vertex="1"><mxGeometry y="60" width="160" height="26" as="geometry"/></mxCell><mxCell id="ZgN52ImHQu7eaq46eePh-78" style="edgeStyle=orthogonalEdgeStyle;rounded=0;orthogonalLoop=1;jettySize=auto;html=1;endArrow=block;endFill=0;" parent="1" source="ZgN52ImHQu7eaq46eePh-46" target="ZgN52ImHQu7eaq46eePh-14" edge="1"><mxGeometry relative="1" as="geometry"><Array as="points"><mxPoint x="1500" y="480"/></Array></mxGeometry></mxCell><mxCell id="ZgN52ImHQu7eaq46eePh-46" value="상품DTO" style="swimlane;fontStyle=1;align=center;verticalAlign=top;childLayout=stackLayout;horizontal=1;startSize=26;horizontalStack=0;resizeParent=1;resizeParentMax=0;resizeLast=0;collapsible=1;marginBottom=0;" parent="1" vertex="1"><mxGeometry x="1420" y="300" width="160" height="86" as="geometry"/></mxCell><mxCell id="ZgN52ImHQu7eaq46eePh-47" value="+ field: type" style="text;strokeColor=none;fillColor=none;align=left;verticalAlign=top;spacingLeft=4;spacingRight=4;overflow=hidden;rotatable=0;points=[[0,0.5],[1,0.5]];portConstraint=eastwest;" parent="ZgN52ImHQu7eaq46eePh-46" vertex="1"><mxGeometry y="26" width="160" height="26" as="geometry"/></mxCell><mxCell id="ZgN52ImHQu7eaq46eePh-48" value="" style="line;strokeWidth=1;fillColor=none;align=left;verticalAlign=middle;spacingTop=-1;spacingLeft=3;spacingRight=3;rotatable=0;labelPosition=right;points=[];portConstraint=eastwest;strokeColor=inherit;" parent="ZgN52ImHQu7eaq46eePh-46" vertex="1"><mxGeometry y="52" width="160" height="8" as="geometry"/></mxCell><mxCell id="ZgN52ImHQu7eaq46eePh-49" value="+ method(type): type" style="text;strokeColor=none;fillColor=none;align=left;verticalAlign=top;spacingLeft=4;spacingRight=4;overflow=hidden;rotatable=0;points=[[0,0.5],[1,0.5]];portConstraint=eastwest;" parent="ZgN52ImHQu7eaq46eePh-46" vertex="1"><mxGeometry y="60" width="160" height="26" as="geometry"/></mxCell><mxCell id="ZgN52ImHQu7eaq46eePh-86" value="USE" style="edgeStyle=orthogonalEdgeStyle;rounded=0;orthogonalLoop=1;jettySize=auto;html=1;endArrow=open;endFill=0;" parent="1" source="ZgN52ImHQu7eaq46eePh-50" target="ZgN52ImHQu7eaq46eePh-46" edge="1"><mxGeometry relative="1" as="geometry"/></mxCell><mxCell id="ZgN52ImHQu7eaq46eePh-50" value="상품DAO" style="swimlane;fontStyle=1;align=center;verticalAlign=top;childLayout=stackLayout;horizontal=1;startSize=26;horizontalStack=0;resizeParent=1;resizeParentMax=0;resizeLast=0;collapsible=1;marginBottom=0;" parent="1" vertex="1"><mxGeometry x="1210" y="300" width="160" height="86" as="geometry"/></mxCell><mxCell id="ZgN52ImHQu7eaq46eePh-51" value="+ field: type" style="text;strokeColor=none;fillColor=none;align=left;verticalAlign=top;spacingLeft=4;spacingRight=4;overflow=hidden;rotatable=0;points=[[0,0.5],[1,0.5]];portConstraint=eastwest;" parent="ZgN52ImHQu7eaq46eePh-50" vertex="1"><mxGeometry y="26" width="160" height="26" as="geometry"/></mxCell><mxCell id="ZgN52ImHQu7eaq46eePh-52" value="" style="line;strokeWidth=1;fillColor=none;align=left;verticalAlign=middle;spacingTop=-1;spacingLeft=3;spacingRight=3;rotatable=0;labelPosition=right;points=[];portConstraint=eastwest;strokeColor=inherit;" parent="ZgN52ImHQu7eaq46eePh-50" vertex="1"><mxGeometry y="52" width="160" height="8" as="geometry"/></mxCell><mxCell id="ZgN52ImHQu7eaq46eePh-53" value="+ method(type): type" style="text;strokeColor=none;fillColor=none;align=left;verticalAlign=top;spacingLeft=4;spacingRight=4;overflow=hidden;rotatable=0;points=[[0,0.5],[1,0.5]];portConstraint=eastwest;" parent="ZgN52ImHQu7eaq46eePh-50" vertex="1"><mxGeometry y="60" width="160" height="26" as="geometry"/></mxCell><mxCell id="ZgN52ImHQu7eaq46eePh-89" style="edgeStyle=orthogonalEdgeStyle;rounded=0;orthogonalLoop=1;jettySize=auto;html=1;endArrow=diamondThin;endFill=1;" parent="1" source="ZgN52ImHQu7eaq46eePh-55" target="ZgN52ImHQu7eaq46eePh-42" edge="1"><mxGeometry relative="1" as="geometry"/></mxCell><mxCell id="ZgN52ImHQu7eaq46eePh-55" value="회원Service" style="swimlane;fontStyle=1;align=center;verticalAlign=top;childLayout=stackLayout;horizontal=1;startSize=26;horizontalStack=0;resizeParent=1;resizeParentMax=0;resizeLast=0;collapsible=1;marginBottom=0;" parent="1" vertex="1"><mxGeometry x="1010" y="585" width="160" height="86" as="geometry"/></mxCell><mxCell id="ZgN52ImHQu7eaq46eePh-56" value="+ field: type" style="text;strokeColor=none;fillColor=none;align=left;verticalAlign=top;spacingLeft=4;spacingRight=4;overflow=hidden;rotatable=0;points=[[0,0.5],[1,0.5]];portConstraint=eastwest;" parent="ZgN52ImHQu7eaq46eePh-55" vertex="1"><mxGeometry y="26" width="160" height="26" as="geometry"/></mxCell><mxCell id="ZgN52ImHQu7eaq46eePh-57" value="" style="line;strokeWidth=1;fillColor=none;align=left;verticalAlign=middle;spacingTop=-1;spacingLeft=3;spacingRight=3;rotatable=0;labelPosition=right;points=[];portConstraint=eastwest;strokeColor=inherit;" parent="ZgN52ImHQu7eaq46eePh-55" vertex="1"><mxGeometry y="52" width="160" height="8" as="geometry"/></mxCell><mxCell id="ZgN52ImHQu7eaq46eePh-58" value="+ method(type): type" style="text;strokeColor=none;fillColor=none;align=left;verticalAlign=top;spacingLeft=4;spacingRight=4;overflow=hidden;rotatable=0;points=[[0,0.5],[1,0.5]];portConstraint=eastwest;" parent="ZgN52ImHQu7eaq46eePh-55" vertex="1"><mxGeometry y="60" width="160" height="26" as="geometry"/></mxCell><mxCell id="ZgN52ImHQu7eaq46eePh-77" style="edgeStyle=orthogonalEdgeStyle;rounded=0;orthogonalLoop=1;jettySize=auto;html=1;endArrow=block;endFill=0;" parent="1" source="ZgN52ImHQu7eaq46eePh-64" target="ZgN52ImHQu7eaq46eePh-14" edge="1"><mxGeometry relative="1" as="geometry"><Array as="points"><mxPoint x="1580" y="753"/><mxPoint x="1580" y="510"/></Array></mxGeometry></mxCell><mxCell id="ZgN52ImHQu7eaq46eePh-64" value="인증DTO" style="swimlane;fontStyle=1;align=center;verticalAlign=top;childLayout=stackLayout;horizontal=1;startSize=26;horizontalStack=0;resizeParent=1;resizeParentMax=0;resizeLast=0;collapsible=1;marginBottom=0;" parent="1" vertex="1"><mxGeometry x="1410" y="710" width="160" height="86" as="geometry"/></mxCell><mxCell id="ZgN52ImHQu7eaq46eePh-65" value="+ field: type" style="text;strokeColor=none;fillColor=none;align=left;verticalAlign=top;spacingLeft=4;spacingRight=4;overflow=hidden;rotatable=0;points=[[0,0.5],[1,0.5]];portConstraint=eastwest;" parent="ZgN52ImHQu7eaq46eePh-64" vertex="1"><mxGeometry y="26" width="160" height="26" as="geometry"/></mxCell><mxCell id="ZgN52ImHQu7eaq46eePh-66" value="" style="line;strokeWidth=1;fillColor=none;align=left;verticalAlign=middle;spacingTop=-1;spacingLeft=3;spacingRight=3;rotatable=0;labelPosition=right;points=[];portConstraint=eastwest;strokeColor=inherit;" parent="ZgN52ImHQu7eaq46eePh-64" vertex="1"><mxGeometry y="52" width="160" height="8" as="geometry"/></mxCell><mxCell id="ZgN52ImHQu7eaq46eePh-67" value="+ method(type): type" style="text;strokeColor=none;fillColor=none;align=left;verticalAlign=top;spacingLeft=4;spacingRight=4;overflow=hidden;rotatable=0;points=[[0,0.5],[1,0.5]];portConstraint=eastwest;" parent="ZgN52ImHQu7eaq46eePh-64" vertex="1"><mxGeometry y="60" width="160" height="26" as="geometry"/></mxCell><mxCell id="ZgN52ImHQu7eaq46eePh-88" value="USE" style="edgeStyle=orthogonalEdgeStyle;rounded=0;orthogonalLoop=1;jettySize=auto;html=1;endArrow=open;endFill=0;dashed=1;" parent="1" source="ZgN52ImHQu7eaq46eePh-68" target="ZgN52ImHQu7eaq46eePh-64" edge="1"><mxGeometry relative="1" as="geometry"/></mxCell><mxCell id="ZgN52ImHQu7eaq46eePh-68" value="인증DAO" style="swimlane;fontStyle=1;align=center;verticalAlign=top;childLayout=stackLayout;horizontal=1;startSize=26;horizontalStack=0;resizeParent=1;resizeParentMax=0;resizeLast=0;collapsible=1;marginBottom=0;" parent="1" vertex="1"><mxGeometry x="1200" y="710" width="160" height="86" as="geometry"/></mxCell><mxCell id="ZgN52ImHQu7eaq46eePh-69" value="+ field: type" style="text;strokeColor=none;fillColor=none;align=left;verticalAlign=top;spacingLeft=4;spacingRight=4;overflow=hidden;rotatable=0;points=[[0,0.5],[1,0.5]];portConstraint=eastwest;" parent="ZgN52ImHQu7eaq46eePh-68" vertex="1"><mxGeometry y="26" width="160" height="26" as="geometry"/></mxCell><mxCell id="ZgN52ImHQu7eaq46eePh-70" value="" style="line;strokeWidth=1;fillColor=none;align=left;verticalAlign=middle;spacingTop=-1;spacingLeft=3;spacingRight=3;rotatable=0;labelPosition=right;points=[];portConstraint=eastwest;strokeColor=inherit;" parent="ZgN52ImHQu7eaq46eePh-68" vertex="1"><mxGeometry y="52" width="160" height="8" as="geometry"/></mxCell><mxCell id="ZgN52ImHQu7eaq46eePh-71" value="+ method(type): type" style="text;strokeColor=none;fillColor=none;align=left;verticalAlign=top;spacingLeft=4;spacingRight=4;overflow=hidden;rotatable=0;points=[[0,0.5],[1,0.5]];portConstraint=eastwest;" parent="ZgN52ImHQu7eaq46eePh-68" vertex="1"><mxGeometry y="60" width="160" height="26" as="geometry"/></mxCell><mxCell id="ZgN52ImHQu7eaq46eePh-90" style="edgeStyle=orthogonalEdgeStyle;rounded=0;orthogonalLoop=1;jettySize=auto;html=1;endArrow=diamondThin;endFill=1;" parent="1" source="ZgN52ImHQu7eaq46eePh-72" target="ZgN52ImHQu7eaq46eePh-68" edge="1"><mxGeometry relative="1" as="geometry"/></mxCell><mxCell id="ZgN52ImHQu7eaq46eePh-72" value="인증Service" style="swimlane;fontStyle=1;align=center;verticalAlign=top;childLayout=stackLayout;horizontal=1;startSize=26;horizontalStack=0;resizeParent=1;resizeParentMax=0;resizeLast=0;collapsible=1;marginBottom=0;" parent="1" vertex="1"><mxGeometry x="1010" y="710" width="160" height="86" as="geometry"/></mxCell><mxCell id="ZgN52ImHQu7eaq46eePh-73" value="+ field: type" style="text;strokeColor=none;fillColor=none;align=left;verticalAlign=top;spacingLeft=4;spacingRight=4;overflow=hidden;rotatable=0;points=[[0,0.5],[1,0.5]];portConstraint=eastwest;" parent="ZgN52ImHQu7eaq46eePh-72" vertex="1"><mxGeometry y="26" width="160" height="26" as="geometry"/></mxCell><mxCell id="ZgN52ImHQu7eaq46eePh-74" value="" style="line;strokeWidth=1;fillColor=none;align=left;verticalAlign=middle;spacingTop=-1;spacingLeft=3;spacingRight=3;rotatable=0;labelPosition=right;points=[];portConstraint=eastwest;strokeColor=inherit;" parent="ZgN52ImHQu7eaq46eePh-72" vertex="1"><mxGeometry y="52" width="160" height="8" as="geometry"/></mxCell><mxCell id="ZgN52ImHQu7eaq46eePh-75" value="+ method(type): type" style="text;strokeColor=none;fillColor=none;align=left;verticalAlign=top;spacingLeft=4;spacingRight=4;overflow=hidden;rotatable=0;points=[[0,0.5],[1,0.5]];portConstraint=eastwest;" parent="ZgN52ImHQu7eaq46eePh-72" vertex="1"><mxGeometry y="60" width="160" height="26" as="geometry"/></mxCell><mxCell id="ZgN52ImHQu7eaq46eePh-91" style="edgeStyle=orthogonalEdgeStyle;rounded=0;orthogonalLoop=1;jettySize=auto;html=1;endArrow=diamondThin;endFill=1;" parent="1" source="ZgN52ImHQu7eaq46eePh-79" target="ZgN52ImHQu7eaq46eePh-50" edge="1"><mxGeometry relative="1" as="geometry"/></mxCell><mxCell id="ZgN52ImHQu7eaq46eePh-79" value="상품Service" style="swimlane;fontStyle=1;align=center;verticalAlign=top;childLayout=stackLayout;horizontal=1;startSize=26;horizontalStack=0;resizeParent=1;resizeParentMax=0;resizeLast=0;collapsible=1;marginBottom=0;" parent="1" vertex="1"><mxGeometry x="1020" y="300" width="160" height="86" as="geometry"/></mxCell><mxCell id="ZgN52ImHQu7eaq46eePh-80" value="+ field: type" style="text;strokeColor=none;fillColor=none;align=left;verticalAlign=top;spacingLeft=4;spacingRight=4;overflow=hidden;rotatable=0;points=[[0,0.5],[1,0.5]];portConstraint=eastwest;" parent="ZgN52ImHQu7eaq46eePh-79" vertex="1"><mxGeometry y="26" width="160" height="26" as="geometry"/></mxCell><mxCell id="ZgN52ImHQu7eaq46eePh-81" value="" style="line;strokeWidth=1;fillColor=none;align=left;verticalAlign=middle;spacingTop=-1;spacingLeft=3;spacingRight=3;rotatable=0;labelPosition=right;points=[];portConstraint=eastwest;strokeColor=inherit;" parent="ZgN52ImHQu7eaq46eePh-79" vertex="1"><mxGeometry y="52" width="160" height="8" as="geometry"/></mxCell><mxCell id="ZgN52ImHQu7eaq46eePh-82" value="+ method(type): type" style="text;strokeColor=none;fillColor=none;align=left;verticalAlign=top;spacingLeft=4;spacingRight=4;overflow=hidden;rotatable=0;points=[[0,0.5],[1,0.5]];portConstraint=eastwest;" parent="ZgN52ImHQu7eaq46eePh-79" vertex="1"><mxGeometry y="60" width="160" height="26" as="geometry"/></mxCell><mxCell id="ZgN52ImHQu7eaq46eePh-112" style="edgeStyle=orthogonalEdgeStyle;rounded=0;orthogonalLoop=1;jettySize=auto;html=1;endArrow=block;endFill=0;" parent="1" source="ZgN52ImHQu7eaq46eePh-92" target="ZgN52ImHQu7eaq46eePh-14" edge="1"><mxGeometry relative="1" as="geometry"><Array as="points"><mxPoint x="1590" y="903"/><mxPoint x="1590" y="470"/></Array></mxGeometry></mxCell><mxCell id="ZgN52ImHQu7eaq46eePh-92" value="결제DTO" style="swimlane;fontStyle=1;align=center;verticalAlign=top;childLayout=stackLayout;horizontal=1;startSize=26;horizontalStack=0;resizeParent=1;resizeParentMax=0;resizeLast=0;collapsible=1;marginBottom=0;" parent="1" vertex="1"><mxGeometry x="1410" y="860" width="160" height="86" as="geometry"/></mxCell><mxCell id="ZgN52ImHQu7eaq46eePh-93" value="+ field: type" style="text;strokeColor=none;fillColor=none;align=left;verticalAlign=top;spacingLeft=4;spacingRight=4;overflow=hidden;rotatable=0;points=[[0,0.5],[1,0.5]];portConstraint=eastwest;" parent="ZgN52ImHQu7eaq46eePh-92" vertex="1"><mxGeometry y="26" width="160" height="26" as="geometry"/></mxCell><mxCell id="ZgN52ImHQu7eaq46eePh-94" value="" style="line;strokeWidth=1;fillColor=none;align=left;verticalAlign=middle;spacingTop=-1;spacingLeft=3;spacingRight=3;rotatable=0;labelPosition=right;points=[];portConstraint=eastwest;strokeColor=inherit;" parent="ZgN52ImHQu7eaq46eePh-92" vertex="1"><mxGeometry y="52" width="160" height="8" as="geometry"/></mxCell><mxCell id="ZgN52ImHQu7eaq46eePh-95" value="+ method(type): type" style="text;strokeColor=none;fillColor=none;align=left;verticalAlign=top;spacingLeft=4;spacingRight=4;overflow=hidden;rotatable=0;points=[[0,0.5],[1,0.5]];portConstraint=eastwest;" parent="ZgN52ImHQu7eaq46eePh-92" vertex="1"><mxGeometry y="60" width="160" height="26" as="geometry"/></mxCell><mxCell id="ZgN52ImHQu7eaq46eePh-111" value="USE" style="edgeStyle=orthogonalEdgeStyle;rounded=0;orthogonalLoop=1;jettySize=auto;html=1;endArrow=open;endFill=0;dashed=1;" parent="1" source="ZgN52ImHQu7eaq46eePh-96" target="ZgN52ImHQu7eaq46eePh-92" edge="1"><mxGeometry relative="1" as="geometry"/></mxCell><mxCell id="ZgN52ImHQu7eaq46eePh-96" value="결제DAO" style="swimlane;fontStyle=1;align=center;verticalAlign=top;childLayout=stackLayout;horizontal=1;startSize=26;horizontalStack=0;resizeParent=1;resizeParentMax=0;resizeLast=0;collapsible=1;marginBottom=0;" parent="1" vertex="1"><mxGeometry x="1205" y="860" width="160" height="86" as="geometry"/></mxCell><mxCell id="ZgN52ImHQu7eaq46eePh-97" value="+ field: type" style="text;strokeColor=none;fillColor=none;align=left;verticalAlign=top;spacingLeft=4;spacingRight=4;overflow=hidden;rotatable=0;points=[[0,0.5],[1,0.5]];portConstraint=eastwest;" parent="ZgN52ImHQu7eaq46eePh-96" vertex="1"><mxGeometry y="26" width="160" height="26" as="geometry"/></mxCell><mxCell id="ZgN52ImHQu7eaq46eePh-98" value="" style="line;strokeWidth=1;fillColor=none;align=left;verticalAlign=middle;spacingTop=-1;spacingLeft=3;spacingRight=3;rotatable=0;labelPosition=right;points=[];portConstraint=eastwest;strokeColor=inherit;" parent="ZgN52ImHQu7eaq46eePh-96" vertex="1"><mxGeometry y="52" width="160" height="8" as="geometry"/></mxCell><mxCell id="ZgN52ImHQu7eaq46eePh-99" value="+ method(type): type" style="text;strokeColor=none;fillColor=none;align=left;verticalAlign=top;spacingLeft=4;spacingRight=4;overflow=hidden;rotatable=0;points=[[0,0.5],[1,0.5]];portConstraint=eastwest;" parent="ZgN52ImHQu7eaq46eePh-96" vertex="1"><mxGeometry y="60" width="160" height="26" as="geometry"/></mxCell><mxCell id="ZgN52ImHQu7eaq46eePh-110" style="edgeStyle=orthogonalEdgeStyle;rounded=0;orthogonalLoop=1;jettySize=auto;html=1;endArrow=diamondThin;endFill=1;" parent="1" source="ZgN52ImHQu7eaq46eePh-100" target="ZgN52ImHQu7eaq46eePh-96" edge="1"><mxGeometry relative="1" as="geometry"/></mxCell><mxCell id="ZgN52ImHQu7eaq46eePh-113" style="edgeStyle=orthogonalEdgeStyle;rounded=0;orthogonalLoop=1;jettySize=auto;html=1;endArrow=block;endFill=0;" parent="1" source="ZgN52ImHQu7eaq46eePh-100" target="ZgN52ImHQu7eaq46eePh-42" edge="1"><mxGeometry relative="1" as="geometry"><Array as="points"><mxPoint x="1090" y="830"/><mxPoint x="990" y="830"/><mxPoint x="990" y="570"/><mxPoint x="1280" y="570"/></Array></mxGeometry></mxCell><mxCell id="ZgN52ImHQu7eaq46eePh-100" value="결제Servcie" style="swimlane;fontStyle=1;align=center;verticalAlign=top;childLayout=stackLayout;horizontal=1;startSize=26;horizontalStack=0;resizeParent=1;resizeParentMax=0;resizeLast=0;collapsible=1;marginBottom=0;" parent="1" vertex="1"><mxGeometry x="1010" y="860" width="160" height="86" as="geometry"/></mxCell><mxCell id="ZgN52ImHQu7eaq46eePh-101" value="+ field: type" style="text;strokeColor=none;fillColor=none;align=left;verticalAlign=top;spacingLeft=4;spacingRight=4;overflow=hidden;rotatable=0;points=[[0,0.5],[1,0.5]];portConstraint=eastwest;" parent="ZgN52ImHQu7eaq46eePh-100" vertex="1"><mxGeometry y="26" width="160" height="26" as="geometry"/></mxCell><mxCell id="ZgN52ImHQu7eaq46eePh-102" value="" style="line;strokeWidth=1;fillColor=none;align=left;verticalAlign=middle;spacingTop=-1;spacingLeft=3;spacingRight=3;rotatable=0;labelPosition=right;points=[];portConstraint=eastwest;strokeColor=inherit;" parent="ZgN52ImHQu7eaq46eePh-100" vertex="1"><mxGeometry y="52" width="160" height="8" as="geometry"/></mxCell><mxCell id="ZgN52ImHQu7eaq46eePh-103" value="+ method(type): type" style="text;strokeColor=none;fillColor=none;align=left;verticalAlign=top;spacingLeft=4;spacingRight=4;overflow=hidden;rotatable=0;points=[[0,0.5],[1,0.5]];portConstraint=eastwest;" parent="ZgN52ImHQu7eaq46eePh-100" vertex="1"><mxGeometry y="60" width="160" height="26" as="geometry"/></mxCell><mxCell id="ZgN52ImHQu7eaq46eePh-108" style="edgeStyle=orthogonalEdgeStyle;rounded=0;orthogonalLoop=1;jettySize=auto;html=1;endArrow=block;endFill=0;" parent="1" source="ZgN52ImHQu7eaq46eePh-104" target="ZgN52ImHQu7eaq46eePh-6" edge="1"><mxGeometry relative="1" as="geometry"><Array as="points"><mxPoint x="440" y="903"/></Array></mxGeometry></mxCell><mxCell id="ZgN52ImHQu7eaq46eePh-109" style="edgeStyle=orthogonalEdgeStyle;rounded=0;orthogonalLoop=1;jettySize=auto;html=1;endArrow=diamondThin;endFill=1;" parent="1" source="ZgN52ImHQu7eaq46eePh-104" target="ZgN52ImHQu7eaq46eePh-100" edge="1"><mxGeometry relative="1" as="geometry"/></mxCell><mxCell id="ZgN52ImHQu7eaq46eePh-104" value="결제" style="swimlane;fontStyle=1;align=center;verticalAlign=top;childLayout=stackLayout;horizontal=1;startSize=26;horizontalStack=0;resizeParent=1;resizeParentMax=0;resizeLast=0;collapsible=1;marginBottom=0;" parent="1" vertex="1"><mxGeometry x="600" y="860" width="160" height="86" as="geometry"/></mxCell><mxCell id="ZgN52ImHQu7eaq46eePh-105" value="+ field: type" style="text;strokeColor=none;fillColor=none;align=left;verticalAlign=top;spacingLeft=4;spacingRight=4;overflow=hidden;rotatable=0;points=[[0,0.5],[1,0.5]];portConstraint=eastwest;" parent="ZgN52ImHQu7eaq46eePh-104" vertex="1"><mxGeometry y="26" width="160" height="26" as="geometry"/></mxCell><mxCell id="ZgN52ImHQu7eaq46eePh-106" value="" style="line;strokeWidth=1;fillColor=none;align=left;verticalAlign=middle;spacingTop=-1;spacingLeft=3;spacingRight=3;rotatable=0;labelPosition=right;points=[];portConstraint=eastwest;strokeColor=inherit;" parent="ZgN52ImHQu7eaq46eePh-104" vertex="1"><mxGeometry y="52" width="160" height="8" as="geometry"/></mxCell><mxCell id="ZgN52ImHQu7eaq46eePh-107" value="+ method(type): type" style="text;strokeColor=none;fillColor=none;align=left;verticalAlign=top;spacingLeft=4;spacingRight=4;overflow=hidden;rotatable=0;points=[[0,0.5],[1,0.5]];portConstraint=eastwest;" parent="ZgN52ImHQu7eaq46eePh-104" vertex="1"><mxGeometry y="60" width="160" height="26" as="geometry"/></mxCell></root></mxGraphModel></diagram><diagram id="KBPRqG-02jAeLX31tPXi" name="ERD"><mxGraphModel dx="1422" dy="728" grid="1" gridSize="10" guides="1" tooltips="1" connect="1" arrows="1" fold="1" page="1" pageScale="1" pageWidth="827" pageHeight="1169" math="0" shadow="0"><root><mxCell id="0"/><mxCell id="1" parent="0"/></root></mxGraphModel></diagram></mxfile>